<?xml version="1.0" standalone="no"?><!DOCTYPE svg PUBLIC "-//W3C//DTD SVG 1.1//EN" "http://www.w3.org/Graphics/SVG/1.1/DTD/svg11.dtd"><svg class="icon" height="512" viewBox="0 0 1024 1024" version="1.1" xmlns="http://www.w3.org/2000/svg"><path d="M934.359912 460.134749l-99.921757 100.948133c-8.235568 7.988951-21.537526 7.988951-29.747511 0l-99.271958-100.948133c-11.793604-13.847379-3.924379-18.770506 4.285606-26.773783l90.907453 0c-25.071002-136.190799-144.323013-239.438301-287.868313-239.438301-111.013373 0-207.559243 61.690014-257.233596 152.597467l-49.569976-19.810185c57.779961-110.469997 173.394119-185.996135 306.804594-185.996135 173.033915 0 316.005141 126.96774 341.674777 292.64613l75.629491 0C938.283268 441.36322 942.569898 452.144774 934.359912 460.134749zM221.942323 438.660668l99.92278 100.948133c8.209986 7.988951 3.895727 18.783809-4.314259 26.771737L231.035422 566.380538c34.762735 122.810047 147.623175 212.83541 281.70801 212.83541 102.026698 0 191.764512-52.170197 244.220211-131.203204l50.089815 20.018939c-61.003376 98.531084-169.836083 164.393117-294.310026 164.393117-163.624615 0-300.127522-113.600291-336.215438-266.044262l-79.293951 0c-8.235568-7.987928-16.10684-12.924357-4.312212-26.771737l99.246375-100.948133C200.404798 430.671717 213.733361 430.671717 221.942323 438.660668z" /></svg>